<?xml version="1.0" encoding="UTF-8" standalone="no"?>
<svg
   preserveAspectRatio="xMidYMid"
   width="1056.0522"
   height="1056.0522"
   viewBox="0 0 1056.0522 1056.0522"
   id="svg2"
   version="1.1"
   inkscape:version="1.4.3 (0d15f75042, 2025-12-25)"
   sodipodi:docname="logo.svg"
   xmlns:inkscape="http://www.inkscape.org/namespaces/inkscape"
   xmlns:sodipodi="http://sodipodi.sourceforge.net/DTD/sodipodi-0.dtd"
   xmlns="http://www.w3.org/2000/svg"
   xmlns:svg="http://www.w3.org/2000/svg"
   xmlns:rdf="http://www.w3.org/1999/02/22-rdf-syntax-ns#"
   xmlns:cc="http://creativecommons.org/ns#"
   xmlns:dc="http://purl.org/dc/elements/1.1/">
  <metadata
     id="metadata10">
    <rdf:RDF>
      <cc:Work
         rdf:about="">
        <dc:format>image/svg+xml</dc:format>
        <dc:type
           rdf:resource="http://purl.org/dc/dcmitype/StillImage" />
        <dc:title />
      </cc:Work>
    </rdf:RDF>
  </metadata>
  <defs
     id="defs8">
    <inkscape:path-effect
       effect="taper_stroke"
       id="path-effect3102"
       is_visible="true"
       lpeversion="1"
       stroke_width="62.8"
       attach_start="0.1"
       end_offset="0.1"
       smoothing="0.6"
       jointype="round"
       miter_limit="101.1"
       start_shape="center"
       end_shape="center" />
  </defs>
  <sodipodi:namedview
     pagecolor="#ffffff"
     bordercolor="#666666"
     borderopacity="1"
     objecttolerance="10"
     gridtolerance="10"
     guidetolerance="10"
     inkscape:pageopacity="0"
     inkscape:pageshadow="2"
     inkscape:window-width="1696"
     inkscape:window-height="1327"
     id="namedview6"
     showgrid="false"
     inkscape:zoom="0.6368643"
     inkscape:cx="518.16376"
     inkscape:cy="582.54168"
     inkscape:window-x="26"
     inkscape:window-y="23"
     inkscape:window-maximized="0"
     inkscape:current-layer="layer2"
     inkscape:document-rotation="0"
     fit-margin-top="0"
     fit-margin-left="0"
     fit-margin-right="0"
     fit-margin-bottom="0"
     inkscape:showpageshadow="2"
     inkscape:pagecheckerboard="0"
     inkscape:deskcolor="#d1d1d1" />
  <g
     inkscape:groupmode="layer"
     id="layer1"
     inkscape:label="autograph"
     style="display:none"
     transform="translate(160.64138,235.66994)">
    <path
       style="fill:#008000;stroke:#008000;stroke-width:38.7;stroke-miterlimit:4;stroke-dasharray:none;stroke-opacity:1"
       d="m 24.807751,437.18379 c -3.273918,-0.656 -8.707902,-4.08624 -8.707902,-5.49692 0,-0.44509 -1.383595,-2.22771 -3.074655,-3.96136 -3.8977209,-3.99592 -4.0253796,-7.53262 -0.548737,-15.2019 1.389252,-3.06461 3.227148,-7.19311 4.084203,-9.17444 1.4215,-3.28619 10.051026,-17.39239 12.239468,-20.00717 0.503821,-0.60197 1.427605,-1.71849 2.05285,-2.48113 0.625244,-0.76265 3.36608,-4.72374 6.090742,-8.80243 5.002163,-7.48796 10.463856,-14.70904 15.502124,-20.49587 1.510314,-1.73471 4.413314,-5.38216 6.451098,-8.10543 2.037793,-2.72328 4.818923,-6.16722 6.180283,-7.65321 1.361369,-1.486 3.637342,-4.3229 5.057709,-6.30423 1.420375,-1.98133 3.580645,-4.62418 4.800616,-5.87303 1.219978,-1.24882 3.206415,-3.52304 4.414315,-5.05381 3.735045,-4.73341 20.5407,-25.07143 21.110405,-25.54758 0.29633,-0.24767 4.40892,-5.31357 9.13911,-11.25755 4.73018,-5.94398 10.86168,-13.23887 13.62555,-16.21086 2.76387,-2.97198 5.76892,-6.61943 6.67789,-8.10544 1.52674,-2.49592 6.69136,-9.46842 8.74393,-11.80471 0.96103,-1.09388 5.91763,-7.07793 11.42015,-13.78746 1.93264,-2.35659 5.1601,-6.27574 7.17213,-8.70923 6.09317,-7.3695 9.77321,-12.32353 12.3182,-16.58267 1.3319,-2.229 3.16598,-4.86327 4.07573,-5.85392 0.90975,-0.99066 2.28886,-2.81438 3.06467,-4.05272 0.77582,-1.23833 3.19522,-4.68313 5.37644,-7.65512 2.18122,-2.972 4.24758,-5.80889 4.59191,-6.30423 0.34435,-0.49533 2.23207,-2.76964 4.19493,-5.05403 1.96287,-2.2844 3.56885,-4.61471 3.56885,-5.17846 0,-0.56378 0.34838,-1.02506 0.77417,-1.02506 0.87973,0 22.40061,-32.53959 25.61239,-38.72593 1.15723,-2.22899 2.79042,-4.86879 3.62932,-5.86621 0.8389,-0.99743 2.14821,-3.22643 2.90959,-4.95332 0.76138,-1.72689 3.13005,-6.38199 5.26372,-10.34464 2.1337,-3.96266 3.9015,-7.50878 3.92847,-7.88028 0.0789,-1.08558 -3.61839,-0.70671 -7.41799,0.76018 -1.93264,0.74611 -3.90921,1.45888 -4.39236,1.58391 -0.48316,0.12503 -4.8316,2.22992 -9.66321,4.67752 -4.83159,2.44761 -9.06939,4.35536 -9.41735,4.23945 -0.34793,-0.11592 -1.05364,0.59576 -1.56824,1.5815 -0.51458,0.98573 -1.45417,1.79224 -2.08798,1.79224 -0.63381,0 -2.06399,0.81055 -3.17817,1.8012 -1.11417,0.99067 -2.37454,1.80121 -2.80082,1.80121 -0.42628,0 -6.12692,3.64745 -12.66809,8.10544 -6.54118,4.45797 -12.21086,8.10542 -12.59931,8.10542 -0.38843,0 -1.19475,0.60344 -1.79181,1.34099 -0.59707,0.73753 -1.40234,1.14029 -1.78949,0.89498 -0.38714,-0.24529 -0.83648,-0.13732 -0.99855,0.23995 -0.45186,1.05196 -16.27648,11.93373 -17.35441,11.93373 -0.52191,0 -0.94893,0.40527 -0.94893,0.9006 0,0.49533 -0.49414,0.91348 -1.09808,0.9292 -0.60396,0.0158 -2.46266,1.43419 -4.13046,3.15212 -1.6678,1.71793 -3.35348,3.12351 -3.74592,3.12351 -0.39246,0 -2.78336,1.7224 -5.31313,3.82757 -2.52976,2.10515 -6.67495,5.18693 -9.21154,6.84841 -2.53659,1.66146 -4.61198,3.40779 -4.61198,3.8807 0,0.47294 -0.36648,0.62769 -0.81439,0.34387 -0.44791,-0.28379 -2.58567,1.27421 -4.75056,3.46221 -2.16489,2.18801 -4.8621,4.27462 -5.99377,4.63691 -1.13168,0.36228 -4.02807,2.32651 -6.43641,4.36492 -2.40835,2.03842 -5.145846,4.31413 -6.083344,5.05712 -0.937488,0.74301 -2.641636,2.26277 -3.786988,3.37727 -1.145354,1.11449 -2.292938,2.02636 -2.550189,2.02636 -0.994966,0 -18.026091,14.76897 -18.849052,16.34544 -20.841994,18.73605 -43.672679,35.13658 -61.8620644,53.05929 -14.6391221,14.46618 -18.0309398,17.47522 -20.4651336,18.15549 -3.118456,0.87151 -4.280965,-0.49939 -2.217424,-2.61491 0.908121,-0.93101 3.023044,-3.70712 4.6998282,-6.16914 1.6767758,-2.46202 3.5428357,-4.8005 4.1467868,-5.1966 0.6039492,-0.39611 1.0980892,-1.17265 1.0980892,-1.72566 0,-0.553 0.5669491,-1.64736 1.2598881,-2.43191 2.97166212,-3.36455 9.2109522,-10.8267 13.2409447,-15.8361 2.39093,-2.97199 4.596503,-5.60626 4.901288,-5.85393 0.304777,-0.24766 2.230442,-2.47666 4.279251,-4.95332 3.847894,-4.65144 29.044413,-31.07081 29.632664,-31.07081 7.573249,-7.37117 15.631229,-14.55842 20.477662,-18.80063 4.10685,-3.59779 9.44357,-8.29509 11.85937,-10.43843 4.166234,-3.69638 19.953393,-16.95383 23.718763,-19.91812 0.96632,-0.76073 5.45472,-4.2974 9.97424,-7.85926 13.54682,-10.67632 45.25707,-34.01139 50.4109,-37.0966 0.82745,-0.49533 5.96133,-3.79874 11.40862,-7.3409 5.4473,-3.54218 11.28776,-7.22205 12.97883,-8.1775 16.63861,-9.40087 20.61292,-11.520188 26.35417,-14.053467 12.95051,-5.714302 23.98688,-7.577224 27.72361,-4.6797 0.93788,0.727244 2.29819,1.353437 3.02294,1.391543 1.89414,0.09959 9.6632,10.655996 9.6632,13.130112 0,1.145866 0.4526,3.101775 1.00577,4.346462 1.70595,3.83847 -0.66659,13.10087 -5.38747,21.03273 -0.96485,1.62111 -1.66329,3.2422 -1.55208,3.60241 0.33551,1.08669 -2.12826,6.50888 -2.95752,6.50888 -0.42454,0 -0.7719,0.54691 -0.7719,1.21538 0,0.66844 -1.17875,2.99875 -2.61943,5.17846 -1.44069,2.17969 -2.62663,4.67231 -2.63542,5.53914 -0.009,0.86684 -0.4113,1.57606 -0.89446,1.57606 -0.48316,0 -0.87848,0.43357 -0.87848,0.96348 0,1.14096 -5.29129,9.25963 -6.31778,9.69365 -0.3905,0.16512 -0.71,0.8783 -0.71,1.58488 0,0.70656 -0.79062,1.97867 -1.75694,2.82691 -0.96632,0.84823 -1.75695,1.85134 -1.75695,2.22916 0,1.09878 -5.36723,9.95682 -7.5266,12.42182 -2.53023,2.88839 -11.79979,17.14641 -11.79979,18.14992 0,0.41951 -0.33456,0.76275 -0.74346,0.76275 -0.4089,0 -2.68196,2.83032 -5.05121,6.2896 -2.36928,3.45927 -4.80191,6.29617 -5.40586,6.30423 -0.60394,0.008 -1.09809,0.77856 -1.09809,1.71225 0,0.93369 -0.98828,2.36148 -2.19618,3.17286 -1.2079,0.81139 -2.19618,2.07381 -2.19618,2.80539 0,0.73159 -0.36868,1.33015 -0.81928,1.33015 -0.45059,0 -1.05086,0.74804 -1.3339,1.66232 -0.28306,0.91425 -2.64472,4.18396 -5.24816,7.26597 -2.60345,3.08202 -5.21365,6.79197 -5.80046,8.24433 -0.58681,1.45236 -1.59801,2.64065 -2.24714,2.64065 -0.64912,0 -1.65218,0.91186 -2.22902,2.02636 -0.57683,1.11449 -1.74427,2.53264 -2.59427,3.15144 -0.85001,0.6188 -2.38783,2.52237 -3.41738,4.23017 -1.02953,1.70779 -3.82239,5.25423 -6.20636,7.88095 -2.38396,2.62672 -4.98799,6.16913 -5.78671,7.87201 -1.71728,3.66125 -1.7533,3.70817 -9.24276,12.03369 -3.20839,3.56655 -7.2725,8.30836 -9.03137,10.53735 -1.75887,2.229 -4.6682,5.82625 -6.4652,7.99389 -1.79699,2.16765 -3.55099,4.7006 -3.89779,5.62878 -0.3468,0.92817 -1.0386,1.68759 -1.53734,1.68759 -0.49872,0 -0.91136,0.50659 -0.91696,1.12575 -0.006,0.61917 -1.97951,3.12309 -4.38648,5.56425 -2.40696,2.44117 -5.26839,5.78188 -6.35874,7.42382 -1.09034,1.64194 -2.44995,2.98811 -3.02133,2.99149 -0.57139,0.004 -1.26385,0.71538 -1.53879,1.58221 -0.27495,0.86683 -1.88284,3.06877 -3.57309,4.8932 -1.69025,1.82443 -3.07319,3.56393 -3.07319,3.86557 0,0.71159 -1.52978,2.61165 -4.963318,6.1647 -1.521927,1.5749 -4.150107,4.73802 -5.840401,7.02919 -4.158866,5.63723 -6.595951,8.59405 -10.513025,12.75501 -1.819422,1.93272 -3.759897,4.38736 -4.312149,5.45477 -0.55226,1.06742 -1.731997,2.47033 -2.621643,3.11758 -0.889638,0.64726 -1.617531,1.76175 -1.617531,2.47666 0,0.71492 -0.310084,1.29984 -0.689066,1.29984 -0.37899,0 -1.336859,1.1145 -2.1286,2.47666 -0.791741,1.36216 -2.161745,3.30095 -3.044435,4.30843 -1.550285,1.76943 -8.789162,10.74014 -10.14967,12.57788 -0.935837,1.26411 -6.679791,8.68365 -8.200269,10.59239 -1.664169,2.08913 -1.596703,2.46636 0.441109,2.46636 1.749802,0 7.816595,-5.42773 25.583684,-22.88877 15.258182,-14.99532 30.906074,-29.90641 33.815054,-32.22281 1.42216,-1.13245 9.89903,-8.55372 18.83748,-16.49172 8.93847,-7.93799 18.03065,-15.8343 20.20487,-17.54735 2.17422,-1.71306 4.15079,-3.34666 4.39237,-3.63024 0.24157,-0.28355 2.8111,-2.3794 5.71007,-4.6574 2.89896,-2.278 6.4319,-5.39995 7.85098,-6.93767 1.41908,-1.53771 2.90152,-2.79583 3.29428,-2.79583 0.39277,0 1.42307,-0.70922 2.28959,-1.57605 0.8665,-0.86684 2.68553,-2.3866 4.04227,-3.37727 1.35673,-0.99066 3.9091,-3.10894 5.67191,-4.70727 1.76284,-1.59834 3.60261,-2.91548 4.08838,-2.92696 0.48578,-0.0116 2.56198,-1.64199 4.61376,-3.62331 2.05179,-1.98132 3.97134,-3.60241 4.26568,-3.60241 0.29434,0 2.51098,-1.69592 4.92586,-3.76872 2.41488,-2.07277 5.8299,-4.55098 7.58893,-5.50711 1.75902,-0.95612 3.87106,-2.40106 4.69339,-3.21097 2.41049,-2.37406 4.1029,-3.72406 4.66859,-3.72406 0.70454,0 7.81216,-5.67016 8.18463,-6.52937 0.16107,-0.37151 0.68941,-0.67546 1.17412,-0.67546 0.48469,0 2.52714,-1.15673 4.53876,-2.57051 10.6765,-7.50348 16.0845,-10.94248 17.20466,-10.94062 0.68669,8.9e-4 1.87264,-0.56404 2.63542,-1.25598 0.76278,-0.69193 5.14235,-3.26858 9.73237,-5.72588 4.59001,-2.45731 9.53142,-5.11354 10.9809,-5.90271 7.83444,-4.26551 29.16273,-12.33024 32.609,-12.33024 1.09284,0 2.20549,-0.36246 2.47256,-0.80547 0.26706,-0.443 1.97047,-1.01001 3.78534,-1.26 1.81489,-0.25 4.68339,-0.7994 6.37444,-1.22089 1.69106,-0.42149 7.8184,-0.73731 13.61633,-0.7018 9.94643,0.0609 10.88888,0.22823 16.69097,2.96335 13.66356,6.44103 22.18541,11.29073 24.59723,13.99805 2.08347,2.33873 7.83281,6.2039 12.09034,8.12807 12.58689,5.68862 25.96061,6.34537 48.52426,2.38294 8.21372,-1.44242 20.07311,-3.48647 26.35419,-4.54234 6.28108,-1.05585 12.80374,-2.28528 14.49479,-2.73203 6.1947,-1.63655 15.44894,-3.69001 18.26735,-4.05343 2.50866,-0.32347 11.73388,-1.83071 30.04864,-4.90945 2.65739,-0.4467 8.98239,-1.27082 14.05557,-1.83137 5.07318,-0.56056 11.00286,-1.26724 13.17709,-1.57042 2.17421,-0.30318 4.29581,-0.46604 4.71468,-0.36192 0.41885,0.10412 2.00009,-0.20118 3.51388,-0.67846 1.51378,-0.47727 5.51953,-1.11248 8.90165,-1.41156 3.38211,-0.29909 9.50946,-0.9347 13.61632,-1.41249 4.1069,-0.47777 9.44361,-1.08453 11.85941,-1.34834 2.41581,-0.26381 7.75253,-0.86035 11.85938,-1.32567 4.10687,-0.46532 11.02484,-1.08967 15.37327,-1.38747 4.34844,-0.29778 9.88282,-0.90764 12.29862,-1.35521 2.4158,-0.44759 7.75252,-1.02929 11.85938,-1.29267 4.10686,-0.26337 9.83889,-0.68171 12.73786,-0.92966 2.89896,-0.24793 8.43334,-0.66426 12.2986,-0.92518 8.84157,-0.59681 14.04986,-1.06074 23.36404,-2.08116 12.45419,-1.3644 24.64001,-1.26413 27.36012,0.22514 2.23764,1.22514 5.58567,1.28199 16.3901,0.27827 1.15897,-0.10767 2.27902,0.31082 2.48898,0.92999 0.20995,0.61916 -0.24422,1.12575 -1.0092,1.12575 -0.76496,0 -1.39088,0.38966 -1.39088,0.8659 0,0.85137 -5.62785,2.74035 -8.92247,2.99477 -0.95868,0.074 -1.89794,1.01702 -2.18634,2.19512 -0.28963,1.18284 -1.40257,2.29609 -2.60468,2.60542 -1.15449,0.29705 -2.09901,0.90143 -2.09901,1.34306 0,0.44163 -0.74241,0.80297 -1.64969,0.80297 -0.90729,0 -3.18033,0.6683 -5.05122,1.48511 -1.87088,0.81683 -4.38981,1.61342 -5.59772,1.77022 -1.20789,0.1568 -4.33236,0.68974 -6.94318,1.1843 -2.61091,0.49456 -5.06228,0.69943 -5.44776,0.45523 -0.38538,-0.24419 -3.19061,0.36725 -6.2339,1.35873 -3.04321,0.99148 -6.91675,2.04013 -8.6078,2.33031 -7.20954,1.23716 -15.22877,2.0509 -16.25034,1.64898 -0.60588,-0.23835 -3.45354,0.19145 -6.32817,0.95511 -2.87462,0.76365 -7.76613,1.59551 -10.87004,1.84856 -3.1039,0.25305 -9.39895,0.88056 -13.98897,1.39445 -4.59003,0.5139 -10.32206,1.1485 -12.73785,1.41023 -2.4158,0.26173 -13.2869,1.50158 -24.15799,2.75522 -10.8711,1.25365 -22.13755,2.46438 -25.03651,2.69053 -2.89896,0.22615 -11.99115,1.42836 -20.20487,2.67157 -8.21371,1.24322 -20.46841,3.0343 -27.23265,3.98019 -6.76423,0.94589 -13.87987,2.12037 -15.8125,2.60996 -1.93264,0.48959 -8.25764,1.55002 -14.05557,2.3565 -5.79791,0.80649 -12.57907,2.04083 -15.06923,2.74293 -2.49016,0.70213 -5.97513,1.2766 -7.74438,1.2766 -1.76926,0 -3.89574,0.3725 -4.72553,0.82777 -1.89584,1.04019 -23.84519,4.9417 -36.41238,6.47231 -11.16132,1.3594 -29.84326,0.16594 -37.07281,-2.3683 -8.20564,-2.87642 -19.30136,-9.13482 -27.67189,-15.60802 -7.91694,-6.12239 -17.32911,-11.55822 -20.20487,-11.66895 -13.2272,-0.50931 -21.27918,0.11593 -26.96098,2.09354 -2.16726,0.75436 -4.99273,1.51356 -6.27882,1.68715 -2.753,0.37157 -3.52535,0.64844 -13.31925,4.77451 -13.80445,5.81566 -24.27751,10.95829 -35.1389,17.25437 -7.79498,4.51856 -9.94966,5.83535 -10.54167,6.44226 -8.99403,6.36422 -18.58703,11.90452 -26.97596,18.92007 -0.58355,0.49126 -1.69399,0.8932 -2.46764,0.8932 -0.77364,0 -1.16231,0.40527 -0.8637,0.90061 -1.45719,1.97319 -5.3711,3.95294 -7.25712,5.62876 -6.96078,6.23025 -17.69104,14.32946 -19.6968,14.86719 -0.87804,0.2354 -1.59913,0.88732 -1.60244,1.44871 -0.004,0.56139 -1.3869,1.98483 -3.07466,3.16317 -1.68775,1.17834 -3.06865,2.49547 -3.06865,2.92696 0,0.43148 -0.59297,0.78451 -1.31771,0.78451 -0.72474,0 -1.31771,0.37797 -1.31771,0.83991 0,0.46196 -0.6918,1.0815 -1.53733,1.37677 -0.84553,0.29527 -3.71154,2.55085 -6.36892,5.01241 -2.65738,2.46156 -5.14372,4.47628 -5.52521,4.47716 -0.38147,8.7e-4 -1.76507,1.01631 -3.07465,2.25652 -3.59801,3.40741 -17.51363,15.61421 -23.30728,20.44515 -1.36308,1.13658 -4.09575,3.78892 -6.07261,5.89407 -1.97685,2.10517 -3.99496,3.82757 -4.48469,3.82757 -0.48974,0 -3.42232,2.63427 -6.51687,5.85393 -3.09455,3.21965 -5.96089,5.85392 -6.36965,5.85392 -0.40875,0 -3.06915,2.33031 -5.91198,5.17846 -10.17679,10.19584 -22.874069,21.98697 -26.086731,24.22503 -1.798295,1.25276 -3.077236,2.47499 -2.842087,2.71606 0.584193,0.5989 -5.18507,6.60638 -6.344417,6.60638 -0.511034,0 -1.542422,1.21582 -2.291978,2.70182 -0.749557,1.48599 -1.730618,2.70181 -2.18015,2.70181 -0.449523,0 -3.722562,2.93822 -7.273419,6.52937 -8.055286,8.1467 -11.635097,11.31362 -16.059084,14.20689 -15.383197,10.06053 -19.595692,11.57247 -27.711753,9.94624 z"
       id="path3338-2"
       inkscape:connector-curvature="0"
       sodipodi:nodetypes="ssssssssssssssssssssssssssssssssssssssssssssssssssssssssssssssccsssssssssccsssssssssssssssscssssssssssssssssssssssssssssscsscsssssssssssssssssssssssssssssssssssscssssssssssssssssssssssssssssssssssssssssssssssssssssssssssssssssssssccsccscssssssssssssssssssssss" />
  </g>
  <g
     inkscape:groupmode="layer"
     id="layer5"
     inkscape:label="autograph copy 1"
     style="display:inline">
    <path
       style="fill:none;stroke:#6a6f6a;stroke-width:34.8;stroke-linecap:butt;stroke-linejoin:miter;stroke-miterlimit:4;stroke-dasharray:none;stroke-opacity:1"
       d="m 145.01459,535.55353 c 52.65715,-62.7664 104.04842,-125.41771 226.00935,-194.48445 59.14784,-26.6101 53.60607,23.0429 43.86529,37.88381 -55.70496,74.1677 -59.06296,78.28317 -89.94173,117.69422 L 190.38904,672.05329 351.624,524.88356 c 72.91696,-63.28471 95.8143,-66.92981 95.8143,-66.92981 34.1391,-17.4296 57.83094,-3.98477 75.82128,6.57457 40.13748,30.67118 68.98721,26.24629 98.61648,21.44778 l 270.52139,-48.3923 c 28.36737,6.02546 8.3862,25.63182 2.42499,25.70494 l -274.50921,48.98485 c -23.90907,1.71325 -59.64628,11.98963 -98.93972,-17.45995 0,0 -40.57515,-40.54203 -96.24592,3.50256 -89.7091,57.88018 -149.20436,123.15481 -218.62654,185.80839 -36.7542,21.11442 -41.85365,8.21811 -30.39237,-25.70466 l 181.3353,-241.69106 c 21.08498,-23.03833 81.11294,-101.17745 -20.10062,-28.99235 -45.86095,31.26791 -116.51328,92.03269 -185.53879,158.00198 0,0 -19.99635,14.80293 -6.78998,-10.18497 z"
       id="path3109"
       sodipodi:nodetypes="cccccccccccccccccccc"
       inkscape:export-xdpi="46.325233"
       inkscape:export-ydpi="46.325233" />
  </g>
  <g
     inkscape:groupmode="layer"
     id="layer2"
     inkscape:label="circle"
     style="display:inline"
     transform="translate(160.64138,235.66994)">
    <circle
       style="opacity:1;fill:none;fill-opacity:1;stroke:#6a6f6a;stroke-width:88.5;stroke-miterlimit:4;stroke-dasharray:none;stroke-opacity:1"
       id="path3463"
       cx="367.38477"
       cy="292.3562"
       r="473.82614"
       inkscape:export-xdpi="46.325233"
       inkscape:export-ydpi="46.325233" />
  </g>
</svg>
